<svg width="106" height="136" viewBox="0 0 106 136" fill="none" xmlns="http://www.w3.org/2000/svg">
<path fill-rule="evenodd" clip-rule="evenodd" d="M91.9988 106.247C88.3259 106.69 82.7316 107.424 81.3713 107.799C80.0109 108.174 78.6506 109.061 78.0725 111.141C77.6814 112.506 76.9672 118.202 76.5421 121.937C82.8901 118.04 88.2 112.656 92.0158 106.247H91.9988ZM53.0425 128.554C61.0344 128.554 68.5162 126.473 75.0458 122.806C74.6457 118.898 74.0955 115.007 73.3964 111.141C73.2089 110.333 72.8013 109.592 72.2188 109.002C71.6364 108.411 70.902 107.995 70.0976 107.799C68.0401 107.219 56.1372 105.838 56.1372 105.838V105.002C56.1372 105.002 68.0401 103.62 70.0976 103.041C71.4579 102.665 72.8182 101.779 73.3964 99.6981C73.9575 97.7198 75.2158 86.6517 75.3518 85.475C67.1899 87.0098 61.5785 90.8129 54.5729 94.4454C47.1251 98.3167 39.8474 101.096 30.3931 101.096C22.0441 101.096 14.6134 98.3337 9.22308 94.957C11.8671 104.588 17.582 113.086 25.4947 119.152C33.4073 125.219 43.0827 128.521 53.0425 128.554ZM8.25385 29.1283H13.134V25.2741H14.8684C19.4085 25.2741 22.2822 22.8866 22.2822 18.7595C22.2822 14.2231 19.2215 12.5859 14.2053 12.5859C12.2668 12.5859 9.92024 12.7223 8.25385 12.927V29.1283V29.1283ZM24.2206 29.1283H29.0838V22.7672H34.168V29.1283H39.0482V12.927H34.168V19.3734H29.0838V12.927H24.2206V29.1283V29.1283ZM42.653 29.1283H47.5332V12.927H42.653V29.1283ZM51.1381 29.1283H59.9462L60.6773 25.8881H56.0012V12.927H51.1381V29.1283ZM62.4287 29.1283H67.2919V12.927H62.4287V29.1283ZM70.9648 29.1283H75.8449V25.2741H77.5794C82.1194 25.2741 84.9931 22.8866 84.9931 18.7595C84.9931 14.2231 81.9324 12.5859 76.9162 12.5859C74.9777 12.5859 72.6482 12.7223 70.9648 12.927V29.1283ZM53.0255 36.291C49.1656 36.291 45.4247 36.7686 41.8538 37.6895C42.0409 39.3096 42.585 43.8289 42.8571 44.7499C43.1802 45.9095 43.9283 46.4041 44.6765 46.6088C45.8158 46.9328 52.2263 47.6661 52.2263 47.6661V48.1266C52.2263 48.1266 45.8158 48.894 44.6765 49.218C43.9283 49.4227 43.1802 49.9002 42.8571 51.0599C42.602 51.9637 42.0919 56.0908 41.8879 57.8815C45.6798 58.3931 49.7437 58.8706 49.7437 58.8706V59.6892C49.7437 59.6892 37.8409 61.0706 35.8004 61.6504C34.4231 62.0256 33.0798 62.9124 32.4846 64.993C31.9405 66.9031 30.7502 77.3743 30.5802 78.9433C38.9632 77.4084 46.1219 72.9743 51.4951 70.348C59.147 66.5961 66.1696 63.5264 75.7259 63.5264C84.0409 63.5264 91.3696 66.238 96.7429 69.5976C94.0515 60.0404 88.3318 51.6214 80.4479 45.6126C72.564 39.6039 62.9444 36.3319 53.0425 36.291H53.0255ZM94.0903 24.6602C94.0903 25.6834 93.3421 26.2121 91.5397 26.2121C89.6257 26.1582 87.7414 25.7234 85.9964 24.933L86.5405 28.6508C88.1746 29.1957 89.8857 29.4721 91.6077 29.4694C95.6887 29.4694 99.0215 28.1051 99.0215 24.0462C99.0215 18.623 91.3526 19.6463 91.3526 17.0541C91.3526 16.2014 92.2028 15.775 93.6142 15.775C95.1445 15.775 96.8279 16.1161 97.9502 16.5936L97.5591 13.0634C96.0927 12.7261 94.5914 12.5657 93.087 12.5859C89.1421 12.5859 86.4555 14.1719 86.4555 17.4804C86.4555 23.1594 94.0903 22.0168 94.0903 24.6431V24.6602ZM76.117 85.3385C76.219 86.2765 77.5113 97.7027 78.0725 99.6981C78.2599 100.507 78.6676 101.248 79.25 101.838C79.8324 102.428 80.5668 102.844 81.3713 103.041C82.8336 103.45 89.2781 104.269 92.866 104.712C95.699 99.5242 97.5117 93.8387 98.2053 87.9649C93.2663 85.974 88.003 84.9159 82.6806 84.844C80.3 84.844 78.1235 85.0145 76.117 85.3385V85.3385ZM24.4757 56.9094C25.836 56.5172 27.1964 55.6474 27.7745 53.5668C28.1486 52.2195 28.8458 46.7793 29.3049 43.0445C23.0985 46.8916 17.8937 52.1643 14.1202 58.4272C17.5961 58.049 21.0561 57.537 24.4927 56.8924L24.4757 56.9094ZM7.86275 76.641C12.7823 78.5843 18.0153 79.6074 23.3024 79.6595C25.547 79.6595 27.6725 79.4549 29.696 79.1138C29.5259 77.4596 28.3356 66.9201 27.7915 65.0101C27.604 64.2013 27.1964 63.4605 26.614 62.8704C26.0315 62.2802 25.2972 61.8638 24.4927 61.6675C23.0644 61.2582 16.8579 60.4737 13.236 60.0303C10.408 65.1741 8.58429 70.8117 7.86275 76.641V76.641ZM40.2555 51.0599C40.1501 50.6149 39.9246 50.2076 39.6036 49.8827C39.2827 49.5578 38.8787 49.3278 38.436 49.218C37.5348 48.9622 33.3348 48.4335 31.6344 48.2118C31.9405 50.6165 32.2636 52.7823 32.4846 53.5668C32.6721 54.3756 33.0797 55.1164 33.6621 55.7065C34.2446 56.2967 34.9789 56.7131 35.7834 56.9094C36.5656 57.1311 38.7761 57.4551 41.2247 57.7962C40.9861 55.5394 40.6628 53.2923 40.2555 51.0599V51.0599ZM40.2555 44.7499C40.5105 43.846 41.0377 39.5995 41.2417 37.843C37.5858 38.8492 34.1 40.2817 30.8692 42.1065C31.0393 43.6584 31.2943 45.6708 31.5494 47.5808C33.2158 47.3932 37.5008 46.8646 38.436 46.6088C39.1842 46.4041 39.9324 45.9095 40.2555 44.7499V44.7499ZM7.84575 88.1354C13.6101 91.8532 21.619 93.695 28.3356 93.695C38.5041 93.695 44.6255 90.6253 51.3251 87.2315C60.5583 82.5758 68.2101 77.6471 80.215 77.7154C86.5867 77.707 92.8673 79.2335 98.5283 82.1665C98.5283 80.2223 98.3923 78.3123 98.1543 76.4363C92.4069 72.7526 84.415 70.8596 77.7324 70.8596C67.564 70.8596 61.4595 73.9976 54.7429 77.3913C46.1219 81.7231 37.8749 86.9416 25.904 86.9416C18.6093 86.9416 7.50567 82.4052 7.50567 82.4223C7.50567 84.3323 7.6247 86.2936 7.84575 88.1354V88.1354ZM105.5 2.91624V82.3882C105.5 111.721 81.9494 135.631 53.0085 135.631C23.5575 135.631 0.5 111.721 0.5 82.3711V2.91624C7.33563 2.06354 29.2538 0 53.0085 0C76.219 0 98.4433 1.92711 105.5 2.91624ZM65.4215 114.467C65.1664 113.58 64.5713 108.515 64.5713 108.515H64.2312C64.2312 108.515 63.653 113.58 63.381 114.484C63.1429 115.371 62.5648 115.746 61.9696 115.916C61.0854 116.155 56.0862 116.769 56.0862 116.769V117.11C56.0862 117.11 61.0854 117.724 61.9696 117.963C62.5648 118.133 63.1599 118.509 63.398 119.413C63.653 120.299 64.2312 125.381 64.2312 125.381H64.5713C64.5713 125.381 65.1664 120.299 65.4215 119.413C65.6765 118.509 66.2547 118.133 66.8498 117.963C67.734 117.724 72.7162 117.11 72.7162 117.11V116.769C72.7162 116.769 67.734 116.155 66.8498 115.916C66.2547 115.746 65.6595 115.371 65.4215 114.467V114.467ZM80.419 18.8277C80.419 16.7812 79.2798 15.6386 76.8652 15.6386L76.066 15.6556V22.3579H76.8652C79.4158 22.3579 80.419 20.9253 80.419 18.8277V18.8277ZM14.1713 22.3579H13.3721V15.6556H14.1713C16.5688 15.6556 17.7081 16.7983 17.7081 18.8277C17.7081 20.9253 16.7049 22.3579 14.1713 22.3579Z" fill="#1474A4"/>
</svg>
